<svg width="19" height="18" viewBox="0 0 19 18" fill="none" xmlns="http://www.w3.org/2000/svg">
<path d="M9.74188 16.0484C5.92267 16.0484 1.58309 11.7529 1.93015 8.18684C2.2772 4.78297 7.13797 1.62223 10.7399 2.10849C13.9081 2.51346 16.7293 6.24177 16.5552 9.20003C16.3823 12.3197 13.0834 16.0484 9.74188 16.0484Z" fill="white"/>
<path d="M12.4764 17.8711C12.2156 17.7902 11.825 17.7093 11.6082 17.628C11.3478 17.5068 11.0438 17.5068 10.0893 17.5471C9.17797 17.5874 8.70032 17.5471 8.04974 17.4658C4.57759 16.899 1.79995 14.5486 0.801923 11.3069C0.628194 10.6991 0.585066 10.375 0.585066 8.91622C0.585066 7.33547 0.541532 7.21429 0.324675 6.5658C-0.933746 3.36442 1.62663 0.00119019 5.27211 0.00119019C6.00974 0.00119019 6.92111 0.204055 7.44189 0.446809C7.78935 0.609025 8.00621 0.649294 9.35129 0.649294C10.5666 0.649294 11.0438 0.689943 11.6513 0.852159C14.3858 1.50064 16.5987 3.16193 17.7705 5.4717C18.5081 6.88986 18.7689 8.34904 18.5948 10.0099C18.5081 10.9019 18.5081 10.9829 18.725 11.5094C19.4195 13.4142 18.7685 15.602 17.076 16.899C16.5548 17.3043 15.5136 17.75 14.8626 17.9122C14.2112 18.0337 13.1701 18.0337 12.5187 17.8715H12.4764V17.8711ZM11.3042 14.7511C12.7368 14.4677 13.9948 13.657 14.4725 12.6848C15.0799 11.5094 14.9062 10.1315 14.0819 9.28055C13.3874 8.55114 12.3458 8.14617 9.87208 7.57899C8.22266 7.21429 7.83207 7.05207 7.48502 6.68737C7.1811 6.36294 7.13756 6.12018 7.39836 5.75548C7.65875 5.35013 8.30973 5.107 9.17756 5.06673C10.4364 4.98581 11.0003 5.26922 11.7379 6.36332C12.3023 7.17402 12.8662 7.3765 13.6046 7.05207C14.5591 6.60645 14.4725 5.14765 13.4305 4.29668C12.4325 3.52701 11.3478 3.20258 9.52462 3.20258C7.61522 3.20258 6.31286 3.56728 5.44502 4.3776C4.75051 5.02608 4.62072 5.39078 4.62072 6.40359C4.62072 7.45704 4.75092 7.78109 5.48855 8.38931C6.26973 9.07806 6.92071 9.32158 9.26382 9.84811C10.9132 10.2128 11.3474 10.4153 11.7375 10.8206C11.9117 11.0235 11.9983 11.1853 11.9983 11.55C11.9983 11.9554 11.9548 12.0363 11.6077 12.3607C11.087 12.8466 10.3058 13.0491 9.30776 13.0092C8.136 12.9279 7.61522 12.6039 7.00777 11.4691C6.57365 10.6995 6.2266 10.4157 5.66228 10.4157C4.40346 10.4157 3.96974 11.3882 4.62072 12.6441C5.18504 13.7386 6.31326 14.468 7.74541 14.7514C8.61325 14.9137 10.5231 14.9137 11.3478 14.7514H11.3042V14.7511Z" fill="#00AFF0"/>
</svg>
