<svg width="1920" height="391" viewBox="0 0 1920 391" fill="none" xmlns="http://www.w3.org/2000/svg">
<mask id="mask0_979_1436" style="mask-type:alpha" maskUnits="userSpaceOnUse" x="0" y="0" width="1920" height="391">
<rect opacity="0.3" width="1920" height="391" fill="#C4C4C4"/>
</mask>
<g mask="url(#mask0_979_1436)">
<path d="M-44 230.366C10.2635 230.366 10.2635 240.162 64.4092 240.162C118.673 240.162 118.673 240.717 172.818 240.717C227.082 240.717 227.082 223.25 281.228 223.25C335.491 223.25 335.491 128.797 389.637 128.797C443.9 128.797 443.9 297 498.046 297C552.31 297 552.31 214.655 606.455 214.655C660.719 214.655 660.719 198.296 714.865 198.296C769.128 198.296 769.128 205.32 823.274 205.32C877.537 205.32 877.537 109.944 931.683 109.944C985.829 109.944 985.829 291.825 1040.09 291.825C1094.24 291.825 1094.24 80 1148.5 80C1202.65 80 1202.65 195.894 1256.91 195.894C1311.06 195.894 1311.06 163.732 1365.32 163.732C1419.47 163.732 1419.47 204.581 1473.73 204.581C1527.87 204.581 1527.87 240.347 1582.14 240.347C1636.28 240.347 1636.4 219.276 1690.55 219.276C1732.1 219.276 1751.99 252.824 1789.78 261.788C1853.34 276.853 1930.55 273.988 1996 268.535" stroke="#ED2B29" stroke-width="3" stroke-miterlimit="10"/>
<path d="M1930 47.2428C1876.45 43.1667 1818.66 55.6728 1770.65 36.4968C1743.93 25.8435 1717.45 6.29693 1687.67 20.5631C1667.9 30.0122 1657.07 49.5588 1647.42 65.2145C1631.06 91.9868 1613.06 143.586 1565.63 143.586C1491.83 143.586 1491.83 87.4476 1418.04 87.4476C1344.25 87.4476 1344.25 379.256 1270.45 379.256C1196.66 379.256 1196.66 385 1122.87 385C1049.08 385 1049.08 5 975.283 5C901.49 5 901.49 41.5919 827.697 41.5919C753.904 41.5919 753.904 163.596 680.112 163.596C622.678 163.596 606.083 250.212 587.723 280.69C574.424 302.83 553.122 330.807 519.815 335.346C467.913 342.479 444.375 302.367 407.302 286.063C386.588 276.892 361.049 284.951 338.923 291.806C208.991 331.733 64.1119 323.118 -75 313.947" stroke="#31B1E6" stroke-width="5" stroke-miterlimit="10"/>
</g>
</svg>
